<?xml version="1.0" encoding="UTF-8"?>
<svg version="1.1" xmlns="http://www.w3.org/2000/svg" width="120" height="120">
<path d="M0 0 C1.24003029 -0.01007584 1.24003029 -0.01007584 2.50511169 -0.02035522 C5.23157808 -0.03931557 7.957798 -0.04325855 10.68432617 -0.04541016 C12.58615723 -0.05183989 14.48798729 -0.05856838 16.38981628 -0.06558228 C20.37513521 -0.07755045 24.3603675 -0.08126361 28.34570312 -0.08007812 C33.43995969 -0.07987507 38.53365758 -0.10716589 43.62778187 -0.14162254 C47.55615261 -0.16391614 51.48438949 -0.1679149 55.412817 -0.16685867 C57.29020804 -0.16921136 59.16760295 -0.17801607 61.04493141 -0.19352341 C63.67748161 -0.21323159 66.30883468 -0.20732661 68.94140625 -0.1953125 C69.70895233 -0.20655151 70.47649841 -0.21779053 71.26730347 -0.22937012 C77.81823521 -0.1538182 82.96889668 1.92809386 87.90698242 6.25537109 C88.44581055 6.90634766 88.98463867 7.55732422 89.53979492 8.22802734 C90.0940918 8.87642578 90.64838867 9.52482422 91.21948242 10.19287109 C94.63215049 15.14585151 94.96221439 19.74307512 94.95532227 25.62573242 C94.96203949 26.45241928 94.96875671 27.27910614 94.97567749 28.13084412 C94.99463784 30.8573105 94.99858081 33.58353042 95.00073242 36.31005859 C95.00716215 38.21188965 95.01389065 40.11371972 95.02090454 42.01554871 C95.03287271 46.00086764 95.03658588 49.98609992 95.03540039 53.97143555 C95.03519733 59.06569211 95.06248816 64.15939 95.09694481 69.25351429 C95.11923841 73.18188503 95.12323716 77.11012191 95.12218094 81.03854942 C95.12453362 82.91594046 95.13333833 84.79333537 95.14884567 86.67066383 C95.16855385 89.30321403 95.16264887 91.9345671 95.15063477 94.56713867 C95.16187378 95.33468475 95.17311279 96.10223083 95.18469238 96.89303589 C95.10914047 103.44396763 93.0272284 108.5946291 88.69995117 113.53271484 C88.04897461 114.07154297 87.39799805 114.61037109 86.72729492 115.16552734 C86.07889648 115.71982422 85.43049805 116.27412109 84.76245117 116.84521484 C79.80947076 120.25788291 75.21224715 120.58794681 69.32958984 120.58105469 C68.50290298 120.58777191 67.67621613 120.59448914 66.82447815 120.60140991 C64.09801176 120.62037026 61.37179184 120.62431323 58.64526367 120.62646484 C56.74343262 120.63289458 54.84160255 120.63962307 52.93977356 120.64663696 C48.95445463 120.65860513 44.96922235 120.6623183 40.98388672 120.66113281 C35.88963015 120.66092975 30.79593226 120.68822058 25.70180798 120.72267723 C21.77343723 120.74497083 17.84520036 120.74896958 13.91677284 120.74791336 C12.03938181 120.75026604 10.1619869 120.75907076 8.28465843 120.77457809 C5.65210823 120.79428627 3.02075517 120.7883813 0.38818359 120.77636719 C-0.37936249 120.7876062 -1.14690857 120.79884521 -1.93771362 120.8104248 C-8.48864536 120.73487289 -13.63930683 118.65296082 -18.57739258 114.32568359 C-19.1162207 113.67470703 -19.65504883 113.02373047 -20.21020508 112.35302734 C-20.76450195 111.70462891 -21.31879883 111.05623047 -21.88989258 110.38818359 C-25.30256065 105.43520318 -25.63262455 100.83797957 -25.62573242 94.95532227 C-25.63244965 94.12863541 -25.63916687 93.30194855 -25.64608765 92.45021057 C-25.66504799 89.72374418 -25.66899097 86.99752427 -25.67114258 84.27099609 C-25.67757231 82.36916504 -25.6843008 80.46733497 -25.6913147 78.56550598 C-25.70328287 74.58018705 -25.70699604 70.59495477 -25.70581055 66.60961914 C-25.70560749 61.51536258 -25.73289831 56.42166468 -25.76735497 51.3275404 C-25.78964857 47.39916965 -25.79364732 43.47093278 -25.79259109 39.54250526 C-25.79494378 37.66511423 -25.80374849 35.78771932 -25.81925583 33.91039085 C-25.83896401 31.27784066 -25.83305903 28.64648759 -25.82104492 26.01391602 C-25.83228394 25.24636993 -25.84352295 24.47882385 -25.85510254 23.6880188 C-25.77955062 17.13708706 -23.69763856 11.98642559 -19.37036133 7.04833984 C-18.71938477 6.50951172 -18.0684082 5.97068359 -17.39770508 5.41552734 C-16.74930664 4.86123047 -16.1009082 4.30693359 -15.43286133 3.73583984 C-10.47988091 0.32317177 -5.8826573 -0.00689212 0 0 Z " fill="#191919" transform="translate(25.335205078125,-0.29052734375)"/>
<path d="M0 0 C14.89189189 0 14.89189189 0 19 4 C22.60010695 7.96011765 22.50629195 12.21522094 22.34765625 17.33984375 C21.84906325 21.1549205 20.63731193 23.22388218 18 26 C12.04485614 30.4663579 8.31054668 29 0 29 C0 19.43 0 9.86 0 0 Z " fill="#C57649" transform="translate(60,44)"/>
<path d="M0 0 C1.98 0 3.96 0 6 0 C6 7.92 6 15.84 6 24 C9.96 24 13.92 24 18 24 C18 25.32 18 26.64 18 28 C12.06 28 6.12 28 0 28 C0 18.76 0 9.52 0 0 Z " fill="#E8E8E8" transform="translate(39,44)"/>
<path d="M0 0 C6 0 6 0 8.375 1.375 C10.89850984 5.45143898 10.73811478 9.33782604 10 14 C8.375 17.125 8.375 17.125 6 19 C4.02 19 2.04 19 0 19 C0 12.73 0 6.46 0 0 Z " fill="#221D1B" transform="translate(66,49)"/>
</svg>
