<svg width="36" height="36" viewBox="0 0 36 36" fill="none" xmlns="http://www.w3.org/2000/svg">
<path d="M16.72 33.4C14.9867 33.4 13.4133 32.9733 12 32.12C10.5867 31.24 9.46667 30.0533 8.64 28.56C7.84 27.0667 7.44 25.3867 7.44 23.52C7.44 21.6533 7.84 19.9733 8.64 18.48C9.46667 16.9867 10.5733 15.8 11.96 14.92C13.3733 14.04 14.96 13.6 16.72 13.6C18.16 13.6 19.44 13.9067 20.56 14.52C21.7067 15.1067 22.6267 15.9333 23.32 17C24.0133 18.04 24.4 19.2533 24.48 20.64V26.36C24.4 27.72 24.0133 28.9333 23.32 30C22.6533 31.0667 21.7467 31.9067 20.6 32.52C19.48 33.1067 18.1867 33.4 16.72 33.4ZM17.32 30C19.1067 30 20.5467 29.4 21.64 28.2C22.7333 26.9733 23.28 25.4133 23.28 23.52C23.28 22.2133 23.0267 21.08 22.52 20.12C22.04 19.1333 21.3467 18.3733 20.44 17.84C19.5333 17.28 18.48 17 17.28 17C16.08 17 15.0133 17.28 14.08 17.84C13.1733 18.4 12.4533 19.1733 11.92 20.16C11.4133 21.12 11.16 22.2267 11.16 23.48C11.16 24.76 11.4133 25.8933 11.92 26.88C12.4533 27.84 13.1867 28.6 14.12 29.16C15.0533 29.72 16.12 30 17.32 30ZM23.04 33V27.88L23.72 23.24L23.04 18.64V14H26.68V33H23.04Z" fill="white"/>
</svg>
